<?xml version="1.0" encoding="UTF-8" ?>
<!DOCTYPE svg PUBLIC "-//W3C//DTD SVG 1.1//EN" "http://www.w3.org/Graphics/SVG/1.1/DTD/svg11.dtd">
<svg width="118pt" height="143pt" viewBox="0 0 118 143" version="1.1" xmlns="http://www.w3.org/2000/svg">
<g id="#000000ff">
<path fill="#000000" opacity="1.00" d=" M 23.97 28.00 C 29.12 17.40 40.01 9.42 51.97 9.04 C 59.96 8.83 68.25 8.40 75.91 11.13 C 83.46 13.84 89.28 19.92 93.33 26.67 C 97.55 33.58 95.58 41.96 95.99 49.59 C 99.83 49.24 103.95 48.71 107.55 50.45 C 112.30 52.77 113.98 60.20 109.87 63.87 C 106.63 67.45 101.50 67.60 97.02 67.54 C 96.95 69.50 96.88 71.46 96.82 73.41 C 100.81 73.16 105.44 72.42 108.78 75.20 C 112.78 78.25 113.60 85.16 109.36 88.37 C 106.13 91.85 101.09 90.92 96.88 90.56 C 96.88 92.52 96.88 94.48 96.87 96.45 C 101.08 96.07 106.14 95.13 109.37 98.64 C 114.23 102.33 112.40 110.86 106.84 112.86 C 103.38 114.57 99.48 113.87 96.04 112.52 C 95.93 115.91 96.02 119.44 94.64 122.61 C 93.08 126.21 90.50 129.23 88.63 132.66 C 86.75 135.92 85.61 139.51 84.25 143.00 L 33.62 143.00 C 32.30 137.17 29.19 132.05 25.81 127.22 C 22.92 123.19 22.04 118.24 21.70 113.40 C 17.53 113.87 12.72 114.66 9.18 111.79 C 5.29 109.23 5.02 103.63 6.72 99.72 C 10.19 95.69 16.27 94.70 21.18 96.36 C 21.15 94.43 21.11 92.49 21.09 90.55 C 17.21 90.82 12.99 91.57 9.39 89.64 C 5.28 87.15 4.92 80.99 7.08 77.11 C 10.10 72.49 16.30 72.97 21.10 73.42 C 21.10 71.11 21.11 68.79 21.13 66.48 C 16.09 68.47 9.27 67.62 6.39 62.59 C 5.33 58.97 5.29 54.16 8.62 51.67 C 12.09 48.93 16.83 49.35 20.99 49.36 C 21.13 42.19 21.08 34.70 23.97 28.00 Z" />
</g>
</svg>
