<?xml version="1.0" encoding="UTF-8" ?>
<!DOCTYPE svg PUBLIC "-//W3C//DTD SVG 1.1//EN" "http://www.w3.org/Graphics/SVG/1.1/DTD/svg11.dtd">
<svg width="118pt" height="143pt" viewBox="0 0 118 143" version="1.1" xmlns="http://www.w3.org/2000/svg">
<g id="#000000ff">
<path fill="#000000" opacity="1.00" d=" M 0.00 0.00 L 118.00 0.00 L 118.00 143.00 L 83.56 143.00 C 84.93 137.77 87.24 132.84 90.47 128.50 C 94.08 123.49 95.92 117.47 96.15 111.32 C 97.91 112.18 99.47 114.14 101.61 113.68 C 104.60 113.10 107.86 112.28 110.04 110.03 C 111.54 107.09 111.35 103.51 110.71 100.36 C 107.31 96.02 100.76 94.95 95.94 97.53 C 95.80 94.85 95.79 92.16 95.94 89.49 C 100.22 91.65 105.38 90.94 109.23 88.21 C 111.45 85.84 111.33 82.18 110.89 79.17 C 110.08 75.05 105.37 73.68 101.77 73.14 C 99.47 72.67 97.78 74.69 95.90 75.65 C 95.87 72.25 95.84 68.86 95.96 65.47 C 100.24 67.76 105.39 67.13 109.24 64.26 C 111.67 62.70 111.09 59.44 111.11 56.99 C 111.31 52.69 106.82 50.44 103.24 49.62 C 100.56 48.64 98.28 50.75 95.95 51.69 C 95.82 44.40 96.89 36.81 94.16 29.84 C 91.18 22.47 85.59 16.05 78.28 12.76 C 69.77 8.62 60.07 10.28 50.96 9.98 C 40.32 9.90 31.38 17.32 25.76 25.77 C 20.95 33.54 22.05 42.99 22.06 51.69 C 19.74 50.72 17.45 48.72 14.79 49.64 C 11.71 50.36 7.63 51.23 6.73 54.78 C 5.98 57.79 6.56 61.20 8.17 63.84 C 11.76 67.60 17.52 67.29 21.99 65.44 C 22.18 68.88 22.14 72.33 22.03 75.78 C 19.95 74.67 18.00 72.47 15.42 73.27 C 12.70 73.86 9.58 74.48 7.76 76.78 C 5.94 79.92 5.93 84.09 7.76 87.23 C 9.81 89.69 13.24 90.33 16.24 90.84 C 18.54 91.32 20.23 89.30 22.11 88.35 C 22.16 91.40 22.18 94.46 22.04 97.51 C 17.95 95.56 13.00 95.57 9.21 98.22 C 6.17 100.75 5.23 105.40 7.00 108.94 C 8.28 111.98 11.93 112.66 14.79 113.36 C 17.37 114.26 19.60 112.34 21.85 111.41 C 22.12 117.52 23.92 123.51 27.52 128.50 C 30.76 132.84 33.06 137.77 34.45 143.00 L 0.00 143.00 L 0.00 0.00 Z" />
</g>
</svg>
