<?xml version="1.0" encoding="UTF-8" ?>
<!DOCTYPE svg PUBLIC "-//W3C//DTD SVG 1.1//EN" "http://www.w3.org/Graphics/SVG/1.1/DTD/svg11.dtd">
<svg width="350pt" height="1080pt" viewBox="0 0 350 1080" version="1.1" xmlns="http://www.w3.org/2000/svg">
<g id="#020202ff">
<path fill="#020202" opacity="1.00" d=" M 0.00 0.00 L 295.97 0.00 C 295.92 15.65 296.61 31.32 295.70 46.95 C 295.10 51.30 292.99 57.50 287.01 55.73 C 248.03 57.02 209.45 66.71 174.21 83.31 C 166.42 87.06 159.11 91.73 151.27 95.37 C 125.36 109.27 101.75 127.21 80.46 147.45 C 67.83 160.58 54.89 173.68 45.33 189.32 C 27.82 213.81 17.50 243.75 17.87 273.99 C 17.60 304.02 19.94 334.78 30.93 363.03 C 35.97 377.27 41.62 391.37 49.50 404.32 C 58.63 422.54 69.15 440.08 77.17 458.85 C 83.62 476.53 89.22 494.90 88.18 513.99 C 89.91 533.35 82.78 551.69 76.64 569.62 C 70.90 582.97 66.07 596.70 59.94 609.88 C 48.56 634.38 38.33 659.38 27.18 683.99 C 18.63 706.37 10.23 729.16 7.36 753.10 C 6.19 764.48 2.84 775.53 2.23 786.99 C 1.10 802.50 3.51 817.91 5.65 833.22 C 8.03 855.35 11.61 877.60 19.28 898.59 C 27.79 923.18 39.32 946.95 55.57 967.41 C 71.29 989.12 91.47 1007.42 113.70 1022.28 C 127.80 1030.84 141.62 1040.06 157.02 1046.20 C 176.56 1055.65 198.03 1059.65 218.55 1066.31 C 233.07 1070.49 247.88 1073.94 262.97 1075.12 C 273.71 1076.39 284.68 1076.63 295.04 1080.00 L 0.00 1080.00 L 0.00 0.00 Z" />
</g>
</svg>
