<?xml version="1.0" encoding="UTF-8" ?>
<!DOCTYPE svg PUBLIC "-//W3C//DTD SVG 1.1//EN" "http://www.w3.org/Graphics/SVG/1.1/DTD/svg11.dtd">
<svg width="350pt" height="1080pt" viewBox="0 0 350 1080" version="1.1" xmlns="http://www.w3.org/2000/svg">
<g id="#000000ff">
<path fill="#000000" opacity="1.00" d=" M 53.00 0.00 L 350.00 0.00 L 350.00 1080.00 L 38.65 1080.00 C 39.12 1078.39 40.26 1077.15 41.36 1075.96 C 47.44 1076.05 53.52 1075.97 59.60 1076.00 C 60.05 1075.50 60.95 1074.50 61.40 1074.00 C 66.79 1073.99 72.19 1074.00 77.59 1074.00 C 78.04 1073.50 78.95 1072.50 79.41 1072.00 C 82.80 1071.99 86.19 1071.99 89.58 1072.01 C 90.04 1071.50 90.95 1070.50 91.41 1070.00 C 94.81 1069.99 98.21 1070.01 101.61 1069.98 C 102.38 1065.49 107.39 1067.28 110.59 1067.01 C 111.53 1065.99 112.47 1064.99 113.41 1064.00 C 115.80 1063.99 118.19 1063.99 120.58 1064.00 C 121.52 1062.99 122.47 1061.99 123.42 1061.00 C 125.47 1060.99 127.53 1060.99 129.59 1061.00 C 130.04 1060.50 130.95 1059.50 131.41 1059.00 C 133.81 1058.99 136.20 1058.99 138.60 1059.00 C 139.05 1058.50 139.95 1057.50 140.40 1057.00 C 141.79 1056.98 143.18 1056.99 144.57 1057.00 C 145.51 1055.99 146.46 1055.00 147.42 1054.02 C 151.57 1054.45 155.42 1052.31 159.60 1053.00 C 160.05 1052.50 160.95 1051.50 161.40 1051.00 C 161.95 1051.00 163.05 1051.00 163.59 1050.99 C 164.53 1049.98 165.47 1048.98 166.41 1048.00 C 167.80 1047.98 169.20 1047.98 170.59 1048.00 C 171.05 1047.50 171.95 1046.50 172.41 1046.00 C 174.13 1045.98 175.86 1045.99 177.59 1046.00 C 178.04 1045.50 178.94 1044.50 179.40 1044.00 C 179.95 1044.00 181.04 1044.00 181.59 1044.00 C 182.53 1042.98 183.47 1041.98 184.41 1041.00 C 185.81 1040.98 187.20 1040.98 188.59 1041.00 C 189.05 1040.50 189.95 1039.50 190.40 1039.00 C 190.95 1039.00 192.05 1039.00 192.60 1039.00 C 193.05 1038.50 193.95 1037.50 194.40 1037.00 C 194.95 1037.00 196.05 1036.99 196.60 1036.99 C 197.53 1035.98 198.47 1034.99 199.42 1034.01 C 201.10 1033.99 202.79 1033.97 204.48 1033.93 C 206.52 1032.34 208.69 1030.91 210.49 1029.05 C 211.02 1029.04 212.08 1029.00 212.61 1028.98 C 213.06 1028.48 213.96 1027.48 214.41 1026.99 C 215.51 1027.00 216.61 1027.02 217.71 1027.04 C 218.67 1025.21 219.95 1023.57 221.32 1022.05 C 222.79 1021.95 224.35 1022.08 225.62 1021.16 C 226.11 1021.11 227.10 1021.01 227.60 1020.96 C 228.05 1020.47 228.95 1019.49 229.40 1019.00 C 229.95 1019.00 231.03 1019.00 231.57 1018.99 C 233.18 1017.32 234.80 1015.67 236.43 1014.03 C 236.93 1014.00 237.95 1013.95 238.46 1013.92 C 241.02 1011.58 244.36 1010.29 246.74 1007.74 C 252.60 1002.15 260.24 998.75 265.74 992.75 C 267.20 991.06 269.43 990.47 271.23 989.27 C 272.96 987.63 273.68 985.06 275.96 984.00 C 279.56 982.26 280.50 977.87 283.85 975.83 C 286.27 974.25 287.51 971.49 289.78 969.74 C 291.64 968.22 292.78 966.10 294.28 964.28 C 299.41 960.83 301.19 954.40 305.95 950.57 C 305.99 950.06 306.06 949.05 306.10 948.54 C 307.66 946.60 308.77 944.20 311.03 942.95 C 312.67 942.05 312.82 939.99 313.18 938.37 C 313.63 937.92 314.53 937.03 314.98 936.59 C 314.99 936.04 315.01 934.95 315.02 934.41 C 316.34 933.13 317.67 931.84 319.00 930.58 C 318.99 929.51 318.99 928.46 319.00 927.42 C 320.00 926.46 321.00 925.51 322.00 924.58 C 322.00 924.04 322.00 922.95 322.00 922.40 C 322.50 921.95 323.50 921.05 324.00 920.60 C 324.00 920.05 324.00 918.95 324.00 918.40 C 324.50 917.94 325.50 917.04 326.00 916.59 C 326.00 915.51 325.99 914.45 326.00 913.40 C 326.50 912.95 327.50 912.06 328.00 911.61 C 328.00 910.52 328.00 909.45 328.00 908.39 C 328.50 907.95 329.50 907.05 330.00 906.60 C 330.00 905.19 329.99 903.80 330.00 902.42 C 331.00 901.46 332.00 900.52 333.00 899.58 C 332.99 898.18 332.99 896.78 333.00 895.41 C 333.50 894.95 334.50 894.05 335.00 893.59 C 335.00 891.85 334.99 890.12 335.00 888.40 C 335.50 887.95 336.50 887.05 337.01 886.59 C 337.00 884.19 337.00 881.79 337.00 879.41 C 337.50 878.95 338.50 878.05 339.00 877.60 C 339.00 875.19 339.00 872.80 339.00 870.41 C 339.50 869.96 340.50 869.05 341.00 868.59 C 341.00 864.86 341.00 861.14 341.00 857.42 C 342.00 856.46 343.00 855.51 344.00 854.58 C 344.03 845.42 343.95 836.25 344.02 827.10 C 343.89 825.49 345.93 825.22 346.97 824.61 C 346.98 824.06 347.00 822.97 347.02 822.43 C 346.00 821.47 345.00 820.52 344.00 819.58 C 344.00 807.85 344.00 796.13 344.00 784.40 C 343.50 783.95 342.50 783.05 342.00 782.60 C 342.00 777.20 342.00 771.80 342.00 766.40 C 341.50 765.95 340.50 765.05 340.00 764.60 C 340.00 761.52 340.00 758.45 340.00 755.39 C 339.50 754.94 338.50 754.05 338.00 753.60 C 338.00 751.20 338.00 748.80 338.00 746.40 C 337.50 745.95 336.49 745.05 335.99 744.60 C 336.00 742.40 336.14 740.19 335.91 738.01 C 334.94 735.93 333.84 733.88 333.82 731.53 C 331.65 729.34 330.57 726.46 330.94 723.39 C 330.45 722.94 329.48 722.03 329.00 721.58 C 329.00 719.18 329.00 716.79 329.00 714.40 C 328.50 713.95 327.50 713.05 327.00 712.60 C 326.99 711.52 327.00 710.46 327.00 709.40 C 326.50 708.95 325.50 708.05 325.00 707.59 C 324.99 706.19 325.00 704.80 325.00 703.41 C 324.51 702.96 323.52 702.05 323.02 701.60 C 322.99 701.09 322.94 700.06 322.92 699.55 C 321.87 698.26 320.90 696.90 320.01 695.51 C 320.01 694.98 320.00 693.93 319.99 693.40 C 319.50 692.95 318.50 692.05 318.00 691.60 C 318.00 691.05 318.00 689.95 318.00 689.40 C 317.50 688.95 316.50 688.05 316.00 687.59 C 315.99 686.52 316.00 685.46 316.00 684.40 C 315.50 683.95 314.50 683.05 314.00 682.59 C 314.00 682.05 314.00 680.95 314.00 680.41 C 313.50 679.96 312.50 679.05 312.00 678.60 C 311.99 677.52 311.98 676.44 311.97 675.38 C 309.50 674.95 308.55 672.84 308.87 670.54 C 307.64 668.81 306.35 667.14 305.08 665.45 C 305.02 664.48 304.97 663.51 304.92 662.55 C 303.65 660.84 302.37 659.16 301.09 657.47 C 301.05 656.95 300.98 655.90 300.94 655.38 C 299.05 654.91 297.69 653.54 297.80 651.52 C 296.65 649.76 295.34 648.12 294.07 646.46 C 294.03 645.46 293.99 644.46 293.95 643.47 C 291.07 641.35 290.39 637.59 287.78 635.26 C 285.11 632.30 283.88 628.35 281.09 625.46 C 281.04 624.98 280.95 624.02 280.91 623.54 C 277.25 618.91 274.48 613.51 270.01 609.56 C 270.01 609.03 270.00 607.96 270.00 607.43 C 268.66 606.14 267.33 604.85 266.00 603.57 C 266.00 602.51 266.00 601.46 266.00 600.42 C 265.00 599.47 264.00 598.52 263.00 597.59 C 263.00 597.04 262.99 595.96 262.99 595.42 C 261.66 594.13 260.33 592.85 259.00 591.57 C 259.00 590.52 259.00 589.47 259.00 588.43 C 257.66 587.14 256.33 585.85 255.00 584.57 C 254.99 583.50 254.98 582.44 254.98 581.38 C 253.11 580.93 251.72 579.59 251.77 577.60 C 250.91 575.34 249.65 573.25 248.07 571.44 C 248.03 570.42 248.01 569.40 247.98 568.40 C 247.49 567.95 246.50 567.05 246.00 566.60 C 246.00 565.52 246.00 564.45 246.00 563.40 C 245.50 562.95 244.50 562.05 244.00 561.61 C 244.00 559.86 244.00 558.12 243.98 556.38 C 240.31 555.86 240.87 552.17 240.99 549.41 C 240.49 548.96 239.50 548.05 239.00 547.59 C 239.00 545.52 239.00 543.46 239.00 541.41 C 238.50 540.95 237.50 540.05 237.00 539.60 C 236.37 533.83 238.67 527.23 235.00 522.18 C 235.00 516.40 235.00 510.61 234.99 504.83 C 235.80 503.32 236.99 501.88 236.96 500.09 C 237.11 494.86 236.94 489.63 237.00 484.41 C 237.50 483.95 238.50 483.05 239.00 482.60 C 239.00 479.20 239.00 475.80 239.00 472.40 C 239.50 471.95 240.50 471.05 241.00 470.60 C 241.00 467.54 241.00 464.48 241.00 461.42 C 242.00 460.47 243.00 459.52 244.00 458.58 C 244.00 456.52 244.00 454.46 244.00 452.40 C 244.50 451.95 245.50 451.05 246.00 450.60 C 246.00 448.85 246.00 447.11 246.00 445.38 C 246.50 444.94 247.50 444.05 248.00 443.61 C 248.00 441.87 248.00 440.13 248.00 438.40 C 248.50 437.95 249.50 437.04 250.00 436.59 C 250.00 435.19 250.00 433.80 250.00 432.41 C 250.50 431.95 251.50 431.05 252.00 430.59 C 252.00 428.86 252.00 427.14 252.00 425.42 C 252.99 424.47 253.99 423.53 254.99 422.59 C 255.00 422.05 255.00 420.95 255.00 420.40 C 255.50 419.95 256.50 419.04 257.00 418.59 C 257.00 416.86 256.99 415.13 257.00 413.41 C 257.50 412.96 258.50 412.04 259.00 411.59 C 259.00 410.19 259.00 408.79 259.00 407.40 C 259.50 406.95 260.50 406.05 261.00 405.60 C 261.00 404.53 261.00 403.47 261.00 402.41 C 261.50 401.96 262.49 401.05 262.99 400.59 C 262.90 397.86 262.29 394.24 265.85 393.62 C 265.70 389.96 268.81 387.15 268.06 383.40 C 268.54 382.94 269.51 382.03 270.00 381.58 C 270.00 380.18 270.00 378.79 270.00 377.41 C 270.50 376.95 271.50 376.04 272.00 375.59 C 272.00 374.19 272.00 372.80 272.00 371.41 C 272.50 370.96 273.50 370.05 274.00 369.60 C 274.00 368.20 274.00 366.80 274.00 365.42 C 275.00 364.47 276.00 363.52 277.00 362.58 C 277.00 361.18 277.00 359.79 277.00 358.40 C 277.50 357.95 278.50 357.05 279.00 356.59 C 279.00 355.53 279.00 354.47 279.00 353.42 C 279.50 352.96 280.50 352.05 281.00 351.59 C 281.00 349.52 281.00 347.46 281.00 345.39 C 281.50 344.95 282.50 344.06 283.00 343.61 C 283.00 341.87 282.99 340.14 283.00 338.41 C 283.50 337.95 284.50 337.05 285.00 336.59 C 285.00 333.86 285.00 331.14 285.00 328.41 C 285.50 327.96 286.50 327.05 287.00 326.59 C 287.00 324.53 287.00 322.47 287.00 320.41 C 287.49 319.96 288.47 319.06 288.96 318.61 C 289.01 318.11 289.11 317.12 289.16 316.62 C 291.30 312.26 288.61 306.89 291.36 302.59 C 292.43 300.21 291.91 297.53 292.01 295.01 C 291.86 288.31 292.25 281.60 291.85 274.91 C 290.11 272.01 289.61 268.77 290.00 265.42 C 288.99 264.47 287.99 263.52 287.00 262.58 C 287.01 259.90 287.01 257.22 286.95 254.54 C 285.64 252.86 284.35 251.15 283.06 249.46 C 283.03 248.44 283.01 247.42 282.98 246.40 C 282.49 245.95 281.49 245.04 281.00 244.59 C 281.00 243.53 281.00 242.46 281.00 241.41 C 280.50 240.95 279.49 240.04 278.99 239.59 C 279.00 238.50 279.02 237.42 279.04 236.33 C 277.45 235.00 275.81 233.72 273.99 232.72 C 273.97 232.18 273.94 231.10 273.92 230.56 C 271.94 226.93 268.06 225.09 266.09 221.45 C 266.06 220.93 265.98 219.89 265.95 219.38 C 263.07 218.65 262.42 215.35 260.27 213.66 C 257.97 211.20 254.84 209.83 252.24 207.76 C 250.33 206.31 249.82 203.46 247.39 202.66 C 243.61 201.22 240.65 198.42 237.46 196.06 C 236.44 196.03 235.42 196.00 234.41 195.98 C 233.96 195.52 233.08 194.60 232.64 194.14 C 229.24 194.39 228.35 190.24 225.46 189.06 C 224.11 189.03 222.75 189.00 221.40 188.98 C 220.95 188.50 220.05 187.55 219.60 187.07 C 217.23 187.47 215.06 186.58 214.61 184.02 C 213.21 184.00 211.81 184.00 210.41 184.00 C 209.96 183.50 209.05 182.50 208.59 182.00 C 207.53 182.00 206.47 182.00 205.42 182.00 C 204.47 181.00 203.52 180.00 202.58 179.00 C 200.52 179.00 198.46 179.00 196.41 179.00 C 195.95 178.50 195.04 177.50 194.59 177.00 C 192.52 177.00 190.46 177.00 188.40 177.00 C 187.95 176.50 187.05 175.50 186.61 175.00 C 183.58 175.01 180.56 175.02 177.54 174.95 C 175.97 173.63 174.30 171.94 172.08 172.02 C 167.93 171.85 163.77 172.17 159.62 171.90 C 157.58 170.39 154.93 171.18 152.60 170.89 C 151.00 169.59 148.89 170.06 147.02 169.97 C 136.54 169.97 126.06 170.12 115.59 169.90 C 112.57 168.05 108.76 169.36 105.41 169.01 C 104.47 168.00 103.53 167.00 102.59 166.00 C 101.19 166.00 99.79 166.00 98.40 166.00 C 97.95 165.50 97.05 164.50 96.60 164.00 C 95.21 164.00 93.81 164.00 92.42 164.00 C 91.96 163.52 91.06 162.55 90.61 162.07 C 88.24 162.46 86.07 161.59 85.61 159.03 C 85.07 159.02 83.98 159.00 83.44 158.98 C 81.57 156.33 78.25 155.20 76.57 152.41 C 75.61 150.93 74.30 149.75 73.02 148.57 C 73.00 147.50 72.99 146.44 72.97 145.38 C 70.40 144.94 69.55 142.74 69.93 140.37 C 69.45 139.93 68.48 139.04 68.00 138.60 C 68.00 137.20 68.00 135.80 68.00 134.40 C 67.50 133.95 66.50 133.05 66.00 132.60 C 66.00 130.20 66.00 127.80 66.00 125.41 C 65.50 124.96 64.50 124.05 64.00 123.59 C 64.00 120.19 64.00 116.80 64.00 113.40 C 63.50 112.95 62.50 112.05 62.00 111.60 C 62.00 108.53 62.00 105.47 62.00 102.41 C 61.50 101.95 60.50 101.04 59.99 100.59 C 60.00 98.19 60.01 95.79 59.98 93.39 C 56.30 92.87 56.86 89.16 56.99 86.39 C 56.49 85.95 55.50 85.05 55.00 84.61 C 55.01 78.75 54.97 72.89 55.04 67.04 C 55.04 65.48 55.06 63.86 54.37 62.42 C 52.60 59.23 52.97 55.50 53.00 52.00 C 53.01 34.67 53.00 17.33 53.00 0.00 Z" />
</g>
</svg>
